<svg xmlns="http://www.w3.org/2000/svg" viewBox="0 0 100 100"><g transform="translate(0 104) scale(1 -1) translate(50 50) scale(0.88) translate(-50 -50)"><path fill="#ffffff" fill-rule="evenodd" d="M50 24 L61 28 L68 38 L67 50 L62 58 L61 66 L60 66 C62 74 60 82 53.5 90 C55 83 54.5 76 52.5 71 C52 73.5 48 73.5 47.5 71 C45.5 76 45 83 46.5 90 C40 82 38 74 40 66 L39 66 L38 58 L33 50 L32 38 L39 28 Z M53.5 43 L63 45 L60.5 52 L54 51 Z M46.5 43 L37 45 L39.5 52 L46 51 Z M50 55 L53 61 L50 60 L47 61 Z"/></g></svg>
