<svg xmlns="http://www.w3.org/2000/svg" viewBox="0 0 100 100"><g transform="translate(0 100) scale(1 -1)"><path fill="#ffffff" fill-rule="evenodd" d="M50 25 C60.5 25 68 32.5 68 43.5 C68 51 65.5 57.5 60.5 61.5 C60 64.8 59.8 67.8 59.8 70.2 C59.4 77 57.7 83.5 54.9 89 C53.3 83.5 52.6 77.5 52.5 71.8 C51.5 74 48.5 74 47.5 71.8 C47.4 77.5 46.7 83.5 45.1 89 C42.3 83.5 40.6 77 40.2 70.2 C40.2 67.8 40 64.8 39.5 61.5 C34.5 57.5 32 51 32 43.5 C32 32.5 39.5 25 50 25 Z M53.8 44.5 C58 42.8 62.3 44 64.2 47.6 C63 52.3 58.2 54.4 54.6 52.4 C52.9 50 52.9 46.8 53.8 44.5 Z M46.2 44.5 C42 42.8 37.7 44 35.8 47.6 C37 52.3 41.8 54.4 45.4 52.4 C47.1 50 47.1 46.8 46.2 44.5 Z M50 55.5 L53.2 62 C52 63.8 50.8 64.1 50 62.7 C49.2 64.1 48 63.8 46.8 62 Z"/></g></svg>
