<svg xmlns="http://www.w3.org/2000/svg" viewBox="0 0 100 100"><g transform="translate(50 50) scale(0.62) translate(-50 -50)" fill="#ffffff"><path fill-rule="evenodd" d="M50 10 C32 10 21 23 21 39 C21 49 26 57 33 61 L33 69 C33 73 39 75 50 75 C61 75 67 73 67 69 L67 61 C74 57 79 49 79 39 C79 23 68 10 50 10 Z M31 41 a7 7 0 1 0 14 0 a7 7 0 1 0 -14 0 Z M55 41 a7 7 0 1 0 14 0 a7 7 0 1 0 -14 0 Z M50 48 L55 57 L45 57 Z"/><path d="M39 75 C39 83 41 89 43 92 C45 88 46 81 46 75 Z"/><path d="M54 75 C54 81 55 88 57 92 C59 89 61 83 61 75 Z"/></g></svg>
