<svg xmlns="http://www.w3.org/2000/svg" viewBox="0 0 100 100"><path fill="#ffffff" fill-rule="evenodd" d="M50 8 L52 26 L56 30 L52 34 L50 52 L48 34 L44 30 L48 26 Z M42 32.5 L43.1 35 L45.5 36 L43.1 37 L42 39.5 L40.9 37 L38.5 36 L40.9 35 Z M58 32.5 L56.9 35 L54.5 36 L56.9 37 L58 39.5 L59.1 37 L61.5 36 L59.1 35 Z M50 54.25 C57.87 54.25 64.25 60.63 64.25 68.5 C64.25 76.37 57.87 82.75 50 82.75 C42.13 82.75 35.75 76.37 35.75 68.5 C35.75 60.63 42.13 54.25 50 54.25 Z M50 60.25 C54.56 60.25 58.25 63.94 58.25 68.5 C58.25 73.06 54.56 76.75 50 76.75 C45.44 76.75 41.75 73.06 41.75 68.5 C41.75 63.94 45.44 60.25 50 60.25 Z"/></svg>
