<svg xmlns="http://www.w3.org/2000/svg" viewBox="0 0 100 100"><path fill="#ffffff" fill-rule="evenodd" d="M51 8 C52.4 20 52.4 33 51.4 45 C53.6 46 56 46.5 57.6 44 C61.4 33 58 17 51 8 Z M49 8 C47.6 20 47.6 33 48.6 45 C46.4 46 44 46.5 42.4 44 C38.6 33 42 17 49 8 Z M50 54.25 C57.87 54.25 64.25 60.63 64.25 68.5 C64.25 76.37 57.87 82.75 50 82.75 C42.13 82.75 35.75 76.37 35.75 68.5 C35.75 60.63 42.13 54.25 50 54.25 Z M50 60.25 C54.56 60.25 58.25 63.94 58.25 68.5 C58.25 73.06 54.56 76.75 50 76.75 C45.44 76.75 41.75 73.06 41.75 68.5 C41.75 63.94 45.44 60.25 50 60.25 Z M66 42.5 C68.37 45.75 70.3 49.48 70.3 51.2 A4.3 4.3 0 1 1 61.7 51.2 C61.7 49.48 63.63 45.75 66 42.5 Z M34 42.5 C36.37 45.75 38.3 49.48 38.3 51.2 A4.3 4.3 0 1 1 29.7 51.2 C29.7 49.48 31.63 45.75 34 42.5 Z"/></svg>
