<svg xmlns="http://www.w3.org/2000/svg" viewBox="0 0 100 100"><path fill="#ffffff" fill-rule="evenodd" d="M50 6 C51.4 9.5 52.2 12.5 51.7 16 L50 22 L48.3 16 C47.8 12.5 48.6 9.5 50 6 Z M45.8 19.5 C46.9 21.3 47.4 23 47.1 25 L46.3 28.3 L44.9 25.4 C44.4 23.6 44.9 21.5 45.8 19.5 Z M54.2 19.5 C53.1 21.3 52.6 23 52.9 25 L53.7 28.3 L55.1 25.4 C55.6 23.6 55.1 21.5 54.2 19.5 Z M42 28 C42.9 29.3 43.5 30.4 43.4 31.7 C43.3 32.8 42.5 33.5 41.6 33.4 C40.7 33.3 40.1 32.5 40.2 31.5 C40.3 30.3 41.1 29.1 42 28 Z M58 28 C57.1 29.3 56.5 30.4 56.6 31.7 C56.7 32.8 57.5 33.5 58.4 33.4 C59.3 33.3 59.9 32.5 59.8 31.5 C59.7 30.3 58.9 29.1 58 28 Z M50 29.75 C57.87 29.75 64.25 36.13 64.25 44 C64.25 51.87 57.87 58.25 50 58.25 C42.13 58.25 35.75 51.87 35.75 44 C35.75 36.13 42.13 29.75 50 29.75 Z M50 35.75 C54.56 35.75 58.25 39.44 58.25 44 C58.25 48.56 54.56 52.25 50 52.25 C45.44 52.25 41.75 48.56 41.75 44 C41.75 39.44 45.44 35.75 50 35.75 Z M36 58.5 C36.8 70 40.5 80 47.5 89.5 C45.7 80 44.6 70 44.8 60 C41.8 58.6 38.8 58.2 36 58.5 Z M64 58.5 C63.2 70 59.5 80 52.5 89.5 C54.3 80 55.4 70 55.2 60 C58.2 58.6 61.2 58.2 64 58.5 Z"/></svg>
