<svg xmlns="http://www.w3.org/2000/svg" viewBox="0 0 100 100"><path fill="#ffffff" fill-rule="evenodd" d="M53 50 C53.5 42 53 30 51 10 C58 22 62 40 59 50 Z M47 50 C46.5 42 47 30 49 10 C42 22 38 40 41 50 Z M50 54.25 C57.87 54.25 64.25 60.63 64.25 68.5 C64.25 76.37 57.87 82.75 50 82.75 C42.13 82.75 35.75 76.37 35.75 68.5 C35.75 60.63 42.13 54.25 50 54.25 Z M50 60.25 C54.56 60.25 58.25 63.94 58.25 68.5 C58.25 73.06 54.56 76.75 50 76.75 C45.44 76.75 41.75 73.06 41.75 68.5 C41.75 63.94 45.44 60.25 50 60.25 Z"/></svg>
