<svg xmlns="http://www.w3.org/2000/svg" viewBox="0 0 100 100"><path fill="#ffffff" fill-rule="evenodd" d="M51 12 C52.4 24 52.4 37 51.4 49 C53.6 50 56 50.5 57.6 48 C61.4 37 58 21 51 12 Z M49 12 C47.6 24 47.6 37 48.6 49 C46.4 50 44 50.5 42.4 48 C38.6 37 42 21 49 12 Z M50 54.25 C57.87 54.25 64.25 60.63 64.25 68.5 C64.25 76.37 57.87 82.75 50 82.75 C42.13 82.75 35.75 76.37 35.75 68.5 C35.75 60.63 42.13 54.25 50 54.25 Z M50 60.25 C54.56 60.25 58.25 63.94 58.25 68.5 C58.25 73.06 54.56 76.75 50 76.75 C45.44 76.75 41.75 73.06 41.75 68.5 C41.75 63.94 45.44 60.25 50 60.25 Z"/><path fill="#ffffff" d="M38 45 C39.595 48.5 40.9 54.94 40.9 56.1 A2.9 2.9 0 1 1 35.1 56.1 C35.1 54.94 36.405 48.5 38 45 Z"/><path fill="#ffffff" d="M62 45 C63.595 48.5 64.9 54.94 64.9 56.1 A2.9 2.9 0 1 1 59.1 56.1 C59.1 54.94 60.405 48.5 62 45 Z"/></svg>
