<svg xmlns="http://www.w3.org/2000/svg" viewBox="0 0 100 100"><g transform="translate(50 50) scale(0.86) translate(-50 -50)"><path fill="#7d1013" fill-rule="evenodd" d="M51.5 2 C55.5 8 60 12.5 60.2 19.5 C60.4 26 56.5 31 52.4 35.5 C51.3 36.7 50.5 38.5 50 41 C49.5 38.5 48.8 36.8 47.8 35.6 C43.6 31 40 26.5 39.9 20.3 C39.8 13.7 45.3 10.3 47.9 5.6 C49 3.8 50.3 2.9 51.5 2 Z M50.8 13 C53.4 16.6 55.3 19.3 54.9 23.3 C54.6 26.8 52.4 29.7 49.9 31.7 C47 29.6 45.2 26.7 45.4 23 C45.6 19.2 48.6 16.5 50.8 13 Z M38.4 20.5 C40.2 24.6 41.2 27.6 40.5 30.9 C39.9 33.3 38.4 35 36.6 36.1 C35 33.5 34.3 30.7 35 27.8 C35.7 25.1 37.2 22.9 38.4 20.5 Z M61.6 20.5 C59.8 24.6 58.8 27.6 59.5 30.9 C60.1 33.3 61.6 35 63.4 36.1 C65 33.5 65.7 30.7 65 27.8 C64.3 25.1 62.8 22.9 61.6 20.5 Z M50 86 C45.6 81 38 74 34 66.8 C31.2 61.7 30 56.7 30 51.6 C30 42.6 35.7 37 42 37 C46 37 48.9 39.7 50 43.4 C51.1 39.7 54 37 58 37 C64.3 37 70 42.6 70 51.6 C70 56.7 68.8 61.7 66 66.8 C62 74 54.4 81 50 86 Z M50 48.5 C52.8 53.2 55.4 57 55.4 61.2 C55.4 64.8 53 67.3 50 67.3 C47 67.3 44.6 64.8 44.6 61.2 C44.6 57 47.2 53.2 50 48.5 Z M50 89.2 C52.2 92.2 54.3 94.4 54.3 96.4 C54.3 98.3 52.4 99.6 50 99.6 C47.6 99.6 45.7 98.3 45.7 96.4 C45.7 94.4 47.8 92.2 50 89.2 Z"/></g></svg>
